STARTFONT 2.1
FONT -Monotype-Plantin-Regular-I-Normal--33-240-100-100-P-184-iso8859-5
SIZE 24 100 100
FONTBOUNDINGBOX 41 38 -4 -9

STARTPROPERTIES 24
FOUNDRY "Monotype"
FAMILY_NAME "Plantin"
WEIGHT_NAME "Regular"
SLANT "I"
SETWIDTH_NAME "Normal"
ADD_STYLE_NAME ""
PIXEL_SIZE 33
POINT_SIZE 240
RESOLUTION_X 100
RESOLUTION_Y 100
SPACING "P"
AVERAGE_WIDTH 184
CHARSET_REGISTRY "iso8859"
CHARSET_ENCODING "5"
FACE_NAME "Plantin Inclined ISO Latin Cyrillic"
_DEC_DEVICE_FONTNAMES "PS=plantin-in-latcyrillic"
COPYRIGHT "Copyright (c) 1993 Monotype Typography Ltd."
CAP_HEIGHT 25
X_HEIGHT 16
WEIGHT 10
QUAD_WIDTH 22
DEFAULT_CHAR 160
FONT_DESCENT 9
FONT_ASCENT 29
ENDPROPERTIES

CHARS 191

STARTCHAR space
ENCODING 32
SWIDTH 250 0
DWIDTH 8 0
BBX 0 0 0 0
BITMAP
ENDCHAR

STARTCHAR exclam
ENCODING 33
SWIDTH 312 0
DWIDTH 10 0
BBX 10 23 1 0
BITMAP
03C0
03C0
0380
0380
0380
0700
0700
0700
0600
0E00
0C00
0C00
0C00
0800
1800
1000
0000
0000
0000
6000
F000
F000
6000
ENDCHAR

STARTCHAR quotedbl
ENCODING 34
SWIDTH 417 0
DWIDTH 14 0
BBX 11 9 7 13
BITMAP
38E0
79E0
71C0
71C0
6180
6180
4100
4100
8200
ENDCHAR

STARTCHAR numbersign
ENCODING 35
SWIDTH 500 0
DWIDTH 17 0
BBX 15 23 1 0
BITMAP
060C
0608
0408
0408
0408
0C18
0C10
0810
FFFE
0830
1830
1820
1020
1020
1060
FFFE
3040
2040
2040
20C0
60C0
6080
4080
ENDCHAR

STARTCHAR dollar
ENCODING 36
SWIDTH 490 0
DWIDTH 16 0
BBX 15 26 2 -3
BITMAP
0048
0068
03FC
069C
0496
0CA6
0CA6
0F20
0F20
0740
07C0
03C0
02E0
02E0
04F0
04F0
0530
E530
E930
C970
4A60
6AC0
3F00
1200
1400
1400
ENDCHAR

STARTCHAR percent
ENCODING 37
SWIDTH 729 0
DWIDTH 24 0
BBX 23 24 1 -1
BITMAP
1E0006
39000C
718018
618030
E18060
C18040
C18080
C38100
C30300
C70600
460C00
3C1800
003000
006078
00C0C4
018186
010186
020386
040306
0C030E
18030C
30030C
600118
C000F0
ENDCHAR

STARTCHAR ampersand
ENCODING 38
SWIDTH 948 0
DWIDTH 31 0
BBX 30 23 2 0
BITMAP
007F0000
00E38000
0381C000
0381C000
07008000
07000018
0700003C
0780003C
03E1F804
0F03FE04
1C070F8C
300405F8
700406F0
E0070200
E0078200
E0038200
F0000200
F0000600
78000C00
7E001800
3F80F000
0FFFE000
01FF0000
ENDCHAR

STARTCHAR quoteright
ENCODING 39
SWIDTH 313 0
DWIDTH 10 0
BBX 7 10 5 13
BITMAP
18
3C
3E
1E
0E
04
0C
18
F0
80
ENDCHAR

STARTCHAR parenleft
ENCODING 40
SWIDTH 448 0
DWIDTH 15 0
BBX 14 29 4 -6
BITMAP
0004
001C
0078
00E0
0180
0700
0600
0C00
1800
3800
3000
7000
6000
6000
E000
C000
C000
C000
C000
C000
C000
C000
6000
6000
6000
3000
3800
1C00
0800
ENDCHAR

STARTCHAR parenright
ENCODING 41
SWIDTH 437 0
DWIDTH 14 0
BBX 14 29 -3 -6
BITMAP
00C0
0060
0070
0030
0018
0018
0018
000C
000C
000C
000C
000C
000C
000C
001C
0018
0018
0038
0030
0070
0060
00E0
01C0
0380
0700
0E00
3800
F000
C000
ENDCHAR

STARTCHAR asterisk
ENCODING 42
SWIDTH 521 0
DWIDTH 17 0
BBX 14 15 5 10
BITMAP
0080
0080
0180
0180
F380
3F80
1FFC
07F8
0FC0
1F80
3DC0
71C0
40C0
0040
0040
ENDCHAR

STARTCHAR plus
ENCODING 43
SWIDTH 667 0
DWIDTH 22 0
BBX 17 17 2 2
BITMAP
01C000
01C000
01C000
01C000
01C000
01C000
01C000
FFFF80
FFFF80
FFFF80
01C000
01C000
01C000
01C000
01C000
01C000
01C000
ENDCHAR

STARTCHAR comma
ENCODING 44
SWIDTH 313 0
DWIDTH 10 0
BBX 8 10 -1 -5
BITMAP
0C
1E
1F
0F
07
03
06
0E
18
F0
ENDCHAR

STARTCHAR minus
ENCODING 45
SWIDTH 667 0
DWIDTH 22 0
BBX 18 3 2 9
BITMAP
FFFFC0
FFFFC0
FFFFC0
ENDCHAR

STARTCHAR period
ENCODING 46
SWIDTH 312 0
DWIDTH 10 0
BBX 4 4 2 0
BITMAP
60
F0
F0
60
ENDCHAR

STARTCHAR slash
ENCODING 47
SWIDTH 281 0
DWIDTH 9 0
BBX 14 23 -1 0
BITMAP
000C
0018
0010
0030
0020
0060
0040
00C0
0080
0180
0100
0300
0200
0600
0400
0C00
0800
1000
3000
2000
6000
4000
C000
ENDCHAR

STARTCHAR zero
ENCODING 48
SWIDTH 521 0
DWIDTH 17 0
BBX 15 22 3 0
BITMAP
01F0
0318
060C
0C0C
1C0C
180E
380E
380E
700E
700E
701E
701C
E01C
E01C
E038
E038
E030
6070
6060
60C0
3180
1F00
ENDCHAR

STARTCHAR one
ENCODING 49
SWIDTH 521 0
DWIDTH 17 0
BBX 12 22 3 0
BITMAP
0030
0060
01E0
0FE0
01C0
01C0
01C0
01C0
0180
0380
0380
0380
0700
0700
0700
0700
0E00
0E00
0E00
1E00
3E00
FF80
ENDCHAR

STARTCHAR two
ENCODING 50
SWIDTH 521 0
DWIDTH 17 0
BBX 16 22 1 0
BITMAP
01F8
03FE
0E1F
180F
0007
0007
0007
000E
000E
001C
0038
0070
0060
00C0
0180
0200
0404
080C
100C
3FF8
7FF8
FFF8
ENDCHAR

STARTCHAR three
ENCODING 51
SWIDTH 521 0
DWIDTH 17 0
BBX 15 22 2 0
BITMAP
01F8
07FC
0E1E
080E
000E
000E
000C
001C
0038
01E0
0F80
01E0
0070
0070
0038
0038
0038
0038
0070
C070
F1C0
FF00
ENDCHAR

STARTCHAR four
ENCODING 52
SWIDTH 521 0
DWIDTH 17 0
BBX 15 23 2 -1
BITMAP
0006
000E
001E
003C
006C
00DC
019C
0338
0638
0C38
1838
3070
6070
C070
FFFE
FFFE
00E0
00E0
00C0
01C0
01C0
01C0
0380
ENDCHAR

STARTCHAR five
ENCODING 53
SWIDTH 521 0
DWIDTH 17 0
BBX 16 23 1 0
BITMAP
0001
01FF
01FE
03FE
0200
0600
0400
0F80
0FE0
03F0
00F8
0038
001C
001C
000C
000C
000C
000C
0018
0010
6060
FFC0
3F00
ENDCHAR

STARTCHAR six
ENCODING 54
SWIDTH 521 0
DWIDTH 17 0
BBX 15 22 3 0
BITMAP
000E
007C
00E0
03C0
0780
0E00
1E00
3C00
39E0
73F8
7C38
703C
F01C
E01C
E01C
E01C
E01C
6038
6038
7070
38E0
0F80
ENDCHAR

STARTCHAR seven
ENCODING 55
SWIDTH 521 0
DWIDTH 17 0
BBX 16 22 3 0
BITMAP
1FFF
1FFE
1FFE
100C
3018
0018
0030
0070
0060
00C0
00C0
0180
0300
0300
0600
0C00
0C00
1800
3800
3000
6000
E000
ENDCHAR

STARTCHAR eight
ENCODING 56
SWIDTH 521 0
DWIDTH 17 0
BBX 15 22 2 0
BITMAP
01F8
071C
0C0E
0C06
1C06
1C06
0E0E
0E1C
0738
07E0
03C0
0EE0
3870
7078
E038
C01C
C01C
C01C
C018
6038
3070
1FC0
ENDCHAR

STARTCHAR nine
ENCODING 57
SWIDTH 521 0
DWIDTH 17 0
BBX 15 23 2 -1
BITMAP
03E0
0E38
1C1C
380C
380E
700E
700E
700E
700E
701E
781E
3C7C
3FDC
0F38
0078
0070
00E0
01C0
0380
0700
1E00
7800
C000
ENDCHAR

STARTCHAR colon
ENCODING 58
SWIDTH 312 0
DWIDTH 10 0
BBX 7 15 2 0
BITMAP
0C
1E
1E
0C
00
00
00
00
00
00
00
60
F0
F0
60
ENDCHAR

STARTCHAR semicolon
ENCODING 59
SWIDTH 312 0
DWIDTH 10 0
BBX 11 20 -1 -5
BITMAP
00C0
01E0
01E0
00C0
0000
0000
0000
0000
0000
0000
1E00
1F00
1F00
0F00
0700
0300
0600
0C00
F800
C000
ENDCHAR

STARTCHAR less
ENCODING 60
SWIDTH 667 0
DWIDTH 22 0
BBX 18 17 2 2
BITMAP
0000C0
0007C0
001FC0
007E00
03F800
0FC000
3F0000
F80000
F00000
FE0000
1F8000
07F000
00FC00
003F00
000FC0
0001C0
000040
ENDCHAR

STARTCHAR equal
ENCODING 61
SWIDTH 667 0
DWIDTH 22 0
BBX 18 11 2 5
BITMAP
FFFFC0
FFFFC0
FFFFC0
000000
000000
000000
000000
000000
FFFFC0
FFFFC0
FFFFC0
ENDCHAR

STARTCHAR greater
ENCODING 62
SWIDTH 667 0
DWIDTH 22 0
BBX 18 17 2 2
BITMAP
C00000
F80000
FE0000
1F8000
07F000
00FC00
003F00
0007C0
0003C0
001FC0
007E00
03F800
0FC000
7F0000
FC0000
E00000
800000
ENDCHAR

STARTCHAR question
ENCODING 63
SWIDTH 406 0
DWIDTH 13 0
BBX 12 23 2 0
BITMAP
0F00
0F80
0FC0
0060
0020
0030
0030
0030
0030
0070
01E0
1FE0
1FC0
1E00
3800
3000
3000
0000
0000
6000
F000
F000
6000
ENDCHAR

STARTCHAR at
ENCODING 64
SWIDTH 917 0
DWIDTH 30 0
BBX 28 30 1 -7
BITMAP
000FF000
00700C00
01C00200
03000100
06000080
0C000040
18000040
30039820
300C5820
60183820
60383820
40303020
40603020
C0E07020
C0C06060
C0C06040
C1C0E040
C1C16080
41C2C180
41C4C300
60F8E610
2070F830
30000020
10000060
180000C0
0C000180
06000300
03800600
00E03800
001FC000
ENDCHAR

STARTCHAR A
ENCODING 65
SWIDTH 729 0
DWIDTH 24 0
BBX 24 23 -2 0
BITMAP
00000E
00001E
00003E
00002E
00006E
0000CE
00018E
00031E
00061C
00041C
000C1C
00181C
00301C
007FFC
00C01C
01C01C
01801C
03001C
060038
0C0038
1E003C
3E007C
FF81FF
ENDCHAR

STARTCHAR B
ENCODING 66
SWIDTH 698 0
DWIDTH 23 0
BBX 23 23 0 0
BITMAP
07FFF0
01F078
00E03C
00E01E
00E01E
01E01E
01C01E
01C01C
01C03C
03C078
0381E0
03FF00
0381E0
078070
078038
07003C
0F003C
0F003C
0F003C
1F0078
1F00F0
3F81E0
FFFF80
ENDCHAR

STARTCHAR C
ENCODING 67
SWIDTH 708 0
DWIDTH 23 0
BBX 23 23 2 0
BITMAP
003FE0
00F078
01C01E
07800E
0F000C
1E000C
1C000C
3C0000
380000
780000
700000
F00000
F00000
F00000
F00000
F00030
700030
700060
380060
3C00E0
1E01C0
0F0780
03FC00
ENDCHAR

STARTCHAR D
ENCODING 68
SWIDTH 781 0
DWIDTH 26 0
BBX 25 23 1 0
BITMAP
07FFE000
01E0F800
01E03C00
01E01E00
01E00E00
01C00F00
01C00700
01C00780
03800780
03800780
03800780
07800780
07000780
07000700
07000700
0F000F00
0E000E00
0E001E00
0E001C00
1E003800
3E007000
7F03C000
FFFF0000
ENDCHAR

STARTCHAR E
ENCODING 69
SWIDTH 656 0
DWIDTH 22 0
BBX 23 23 0 0
BITMAP
07FFFE
01F01E
00E00E
00E004
00E004
01E000
01C000
01C030
01C020
0380E0
03FFE0
0381E0
0380C0
0700C0
070040
070000
070000
0E0008
0E0010
0E0030
1E00F0
7F03E0
FFFFE0
ENDCHAR

STARTCHAR F
ENCODING 70
SWIDTH 635 0
DWIDTH 21 0
BBX 23 23 0 0
BITMAP
07FFFE
01F00E
00F00E
00E004
00E004
01E000
01C000
01C030
01C060
03C0E0
03FFE0
0381E0
0380C0
0780C0
070040
070000
070000
0F0000
0E0000
0E0000
1F0000
3F0000
FFC000
ENDCHAR

STARTCHAR G
ENCODING 71
SWIDTH 792 0
DWIDTH 26 0
BBX 24 23 3 0
BITMAP
001FF0
00703E
01C01F
07800E
0F0006
1E0006
1C0006
3C0000
780000
780000
700000
F003FF
F001FE
F000F8
F00070
F00070
7000F0
7000F0
7800E0
3800E0
1C01E0
0F87C0
03FF00
ENDCHAR

STARTCHAR H
ENCODING 72
SWIDTH 823 0
DWIDTH 27 0
BBX 30 23 0 0
BITMAP
03FE0FFC
01F803F0
00F001E0
00F001C0
00E001C0
00E003C0
01E00380
01C00380
01C00380
01C00780
03FFFF00
03FFFF00
03800700
03800E00
07000E00
07000E00
07001E00
0F001C00
0E001C00
0E003C00
1E003C00
3F007E00
FFC1FF00
ENDCHAR

STARTCHAR I
ENCODING 73
SWIDTH 375 0
DWIDTH 12 0
BBX 15 23 0 0
BITMAP
03FE
01FC
00F0
00F0
00E0
00E0
01E0
01C0
01C0
01C0
03C0
0380
0380
0380
0700
0700
0700
0F00
0E00
0E00
1E00
3F00
FFC0
ENDCHAR

STARTCHAR J
ENCODING 74
SWIDTH 479 0
DWIDTH 16 0
BBX 21 29 -3 -6
BITMAP
007838
00FC78
019F78
030FF0
0387C0
03C1C0
03C1C0
018380
000380
000380
007FE0
007FE0
000700
000F00
000E00
000E00
001E00
001E00
001C00
001C00
003C00
003800
003800
007800
007000
406000
E0E000
F1C000
7F0000
ENDCHAR

STARTCHAR K
ENCODING 75
SWIDTH 771 0
DWIDTH 25 0
BBX 29 23 0 0
BITMAP
07FE1FF8
01F807E0
00F00780
00E00600
00E00C00
00E03800
01E06000
01C1C000
01C30000
03CE0000
03980000
03BC0000
039E0000
078F0000
070F8000
07078000
0703C000
0F01E000
0E00F000
0E007800
1F007C00
3F003F00
FFC00F80
ENDCHAR

STARTCHAR L
ENCODING 76
SWIDTH 646 0
DWIDTH 21 0
BBX 21 23 0 0
BITMAP
03FE00
01F800
00F000
00F000
00E000
00E000
01E000
01C000
01C000
03C000
038000
038000
038000
078000
070000
070000
070000
0F0008
0E0018
0E0038
1E0070
3F01F0
FFFFE0
ENDCHAR

STARTCHAR M
ENCODING 77
SWIDTH 979 0
DWIDTH 32 0
BBX 34 23 0 0
BITMAP
00FC001FC0
007C001F00
003C003E00
003C003E00
002C006C00
006C005C00
005E00DC00
00DE019C00
008E013C00
018E033800
018E063800
010E043800
030E0C3800
020F183800
0607103800
0607303800
0407603800
0C07407800
0C07C07800
1C07807800
3C07007800
7C0300F800
FF0203FE00
ENDCHAR

STARTCHAR N
ENCODING 78
SWIDTH 812 0
DWIDTH 27 0
BBX 30 23 0 0
BITMAP
07C007FC
01E001F0
00F000E0
00F000C0
00F800C0
00B80080
01BC0080
011C0180
011E0100
010F0100
03070100
02078300
02038200
0603C200
0601C200
0401E600
0400E400
0C00F400
0C007C00
0C007800
1C003C00
3E001C00
FF801E00
ENDCHAR

STARTCHAR O
ENCODING 79
SWIDTH 792 0
DWIDTH 26 0
BBX 23 23 3 0
BITMAP
003F80
00E0E0
038070
070038
0E001C
1C001C
1C001C
38001E
78001E
78001E
70001E
F0001E
F0001C
F0003C
F0003C
F00038
700078
700070
7800E0
3801C0
1C0380
0E0E00
03F800
ENDCHAR

STARTCHAR P
ENCODING 80
SWIDTH 615 0
DWIDTH 20 0
BBX 23 23 0 0
BITMAP
07FFE0
01F0F8
00F03C
00E01C
00E01E
00E01E
01E01E
01C01E
01C01C
01C03C
038078
038FE0
038F80
078000
070000
070000
070000
0F0000
0E0000
0E0000
1F0000
7F8000
FFC000
ENDCHAR

STARTCHAR Q
ENCODING 81
SWIDTH 792 0
DWIDTH 26 0
BBX 23 29 3 -6
BITMAP
003F80
00E0E0
038070
070038
0E001C
1C001C
1C001C
38001E
78001E
78001E
70001E
F0001E
F0003C
F0003C
F0003C
F00078
700070
7000E0
3801E0
380380
1E0700
07FC00
00C000
018000
060000
0DFC06
1FFFFC
70FFF0
001F80
ENDCHAR

STARTCHAR R
ENCODING 82
SWIDTH 698 0
DWIDTH 23 0
BBX 23 23 0 0
BITMAP
07FFE0
01F0F8
00F03C
00E01C
00E01E
00E01E
01E01E
01C01C
01C03C
01C078
0381F0
03FF80
038E00
078700
070700
070380
070380
0F03C0
0E01C0
0E01E0
1F00F0
3F00F8
FFC07C
ENDCHAR

STARTCHAR S
ENCODING 83
SWIDTH 604 0
DWIDTH 20 0
BBX 20 23 1 0
BITMAP
007F80
01E1E0
0380F0
070070
070030
070020
078020
07C000
03E000
01F000
00F800
007C00
003E00
001F00
000F80
400780
600380
600380
600380
F00780
F80700
3C1E00
07F800
ENDCHAR

STARTCHAR T
ENCODING 84
SWIDTH 667 0
DWIDTH 22 0
BBX 22 23 4 0
BITMAP
7FFFFC
787878
607038
C07018
C07010
00F000
00E000
00E000
00E000
01C000
01C000
01C000
03C000
038000
038000
038000
078000
070000
070000
0F0000
0F0000
1F8000
FFE000
ENDCHAR

STARTCHAR U
ENCODING 85
SWIDTH 771 0
DWIDTH 25 0
BBX 24 23 4 0
BITMAP
FFC0FF
3F007E
1E003C
1C0018
1C0018
1C0010
3C0010
380030
380020
380020
700020
700060
700060
F00040
E00040
E000C0
E000C0
E00080
F00180
700300
3C0E00
1FFC00
07F000
ENDCHAR

STARTCHAR V
ENCODING 86
SWIDTH 719 0
DWIDTH 24 0
BBX 23 23 5 0
BITMAP
FF81FE
7E00FC
3C0070
3C0060
380060
3800C0
380180
380100
380200
380600
380C00
381800
383000
382000
384000
38C000
398000
3B0000
3E0000
3C0000
380000
380000
300000
ENDCHAR

STARTCHAR W
ENCODING 87
SWIDTH 979 0
DWIDTH 32 0
BBX 32 23 5 0
BITMAP
FE7F3F7F
FC3E3E7E
781C1C1C
781C1818
381C3030
381C6030
381CC060
381C80C0
381D0080
381E0100
380E0300
380E0600
381E0C00
383E0800
386E1800
38CE3000
398E6000
390E4000
3A0E8000
3E078000
3C070000
38060000
300E0000
ENDCHAR

STARTCHAR X
ENCODING 88
SWIDTH 781 0
DWIDTH 26 0
BBX 29 23 0 0
BITMAP
03FF0FF8
00FC07E0
00F803C0
00780300
00380600
003C0C00
001C1800
001E3000
000E6000
000FC000
00070000
00078000
000F8000
001BC000
0071C000
00C1E000
0180E000
0300F000
06007000
1E007800
3E007C00
FF83FF00
FF83FF00
ENDCHAR

STARTCHAR Y
ENCODING 89
SWIDTH 719 0
DWIDTH 24 0
BBX 23 23 4 0
BITMAP
FF81FE
7E00FC
3C0078
1C0070
1E0060
1E00C0
0E0180
0F0300
070200
070600
078C00
039800
03F000
01E000
01C000
01C000
03C000
038000
038000
038000
078000
0FC000
3FF000
ENDCHAR

STARTCHAR Z
ENCODING 90
SWIDTH 625 0
DWIDTH 21 0
BBX 23 23 0 0
BITMAP
03FFFE
03C03C
038078
0600F0
0601E0
0003E0
0003C0
000780
000F00
001E00
003C00
007800
00F000
01F000
03E000
03C000
078000
0F0030
1E0060
3C00E0
7801C0
F007C0
FFFF80
ENDCHAR

STARTCHAR bracketleft
ENCODING 91
SWIDTH 375 0
DWIDTH 12 0
BBX 16 29 1 -6
BITMAP
00FF
00F0
00E0
01C0
01C0
01C0
0180
0380
0380
0300
0700
0700
0700
0E00
0E00
0E00
0C00
1C00
1C00
1800
3800
3800
3800
7000
7000
7000
7000
F000
FE00
ENDCHAR

STARTCHAR backslash
ENCODING 92
SWIDTH 281 0
DWIDTH 9 0
BBX 4 23 4 0
BITMAP
80
80
80
80
80
80
C0
C0
40
40
40
40
40
40
60
60
20
20
20
20
20
20
30
ENDCHAR

STARTCHAR bracketright
ENCODING 93
SWIDTH 375 0
DWIDTH 12 0
BBX 15 29 -3 -6
BITMAP
00FE
001E
000E
001C
001C
001C
0018
0038
0038
0038
0070
0070
0070
00E0
00E0
00E0
00C0
01C0
01C0
01C0
0380
0380
0380
0700
0700
0700
0E00
1E00
FE00
ENDCHAR

STARTCHAR asciicircum
ENCODING 94
SWIDTH 427 0
DWIDTH 14 0
BBX 14 11 0 11
BITMAP
0300
0300
0680
0CC0
0840
1860
1020
3010
6018
4008
C00C
ENDCHAR

STARTCHAR underscore
ENCODING 95
SWIDTH 500 0
DWIDTH 17 0
BBX 17 1 0 -9
BITMAP
FFFF80
ENDCHAR

STARTCHAR quoteleft
ENCODING 96
SWIDTH 312 0
DWIDTH 10 0
BBX 7 10 6 13
BITMAP
06
18
30
60
C0
E0
F0
F8
78
20
ENDCHAR

STARTCHAR a
ENCODING 97
SWIDTH 521 0
DWIDTH 17 0
BBX 15 15 1 0
BITMAP
01F6
033C
0C1C
081C
1818
3018
3038
6038
6070
E070
E0B2
E1A2
F364
7E78
3C70
ENDCHAR

STARTCHAR b
ENCODING 98
SWIDTH 469 0
DWIDTH 15 0
BBX 14 23 1 0
BITMAP
1F00
0700
0700
0600
0E00
0E00
0C00
1C00
1CF0
1BF8
3E38
3C1C
381C
781C
7018
7018
6038
E030
E060
E0E0
F1C0
7F00
1C00
ENDCHAR

STARTCHAR c
ENCODING 99
SWIDTH 385 0
DWIDTH 13 0
BBX 12 15 1 0
BITMAP
01E0
0670
0C70
1860
3000
3000
7000
6000
6000
E000
E020
E040
71C0
7F80
3E00
ENDCHAR

STARTCHAR d
ENCODING 100
SWIDTH 500 0
DWIDTH 17 0
BBX 17 23 1 0
BITMAP
000F80
000380
000380
000380
000300
000700
000700
000600
01F600
073E00
0C1E00
181C00
181C00
301C00
701800
603800
603800
E07800
E03000
E0F300
F17600
7E7C00
3C3800
ENDCHAR

STARTCHAR e
ENCODING 101
SWIDTH 385 0
DWIDTH 13 0
BBX 12 15 1 0
BITMAP
00E0
03F0
0430
0830
1820
3060
31C0
6F00
7800
E000
E030
E060
71C0
7F80
3E00
ENDCHAR

STARTCHAR f
ENCODING 102
SWIDTH 281 0
DWIDTH 9 0
BBX 18 29 -4 -6
BITMAP
0003C0
0005C0
000CC0
001800
001800
003800
003800
003000
003000
03FE00
007000
006000
006000
00E000
00E000
00C000
00C000
01C000
01C000
018000
018000
038000
038000
030000
030000
060000
C60000
EC0000
F00000
ENDCHAR

STARTCHAR g
ENCODING 103
SWIDTH 448 0
DWIDTH 15 0
BBX 17 21 -1 -6
BITMAP
00FF80
039F80
030C80
060E00
0E0E00
0E0E00
0E0C00
0E1C00
073800
03E000
0C0000
180000
1C0000
0FC000
1FF000
70F800
E03800
C01800
C01800
607000
3FC000
ENDCHAR

STARTCHAR h
ENCODING 104
SWIDTH 521 0
DWIDTH 17 0
BBX 16 23 1 0
BITMAP
1F80
0380
0300
0300
0700
0700
0600
0E00
0E1C
0C7E
1CCE
1D8E
190C
1A1C
3C1C
3418
3838
7038
7030
6073
E074
E078
C070
ENDCHAR

STARTCHAR i
ENCODING 105
SWIDTH 271 0
DWIDTH 9 0
BBX 9 23 1 0
BITMAP
0380
0380
0380
0000
0000
0000
0000
0000
1C00
3E00
6E00
4C00
8C00
1C00
1C00
1800
3800
3800
3300
7200
7400
7C00
3000
ENDCHAR

STARTCHAR j
ENCODING 106
SWIDTH 240 0
DWIDTH 8 0
BBX 14 29 -4 -6
BITMAP
001C
001C
001C
0000
0000
0000
0000
0000
00E0
01F0
0370
0670
0060
0060
00E0
00C0
00C0
01C0
01C0
0180
0180
0380
0300
0300
0700
0600
C600
EC00
F800
ENDCHAR

STARTCHAR k
ENCODING 107
SWIDTH 521 0
DWIDTH 17 0
BBX 15 23 1 0
BITMAP
1F80
0380
0300
0700
0700
0600
0E00
0E00
0C38
0CFC
1D0E
1E0E
1C0C
381C
3070
3FC0
7180
71C0
60C2
60E6
E0EC
C078
C030
ENDCHAR

STARTCHAR l
ENCODING 108
SWIDTH 240 0
DWIDTH 8 0
BBX 9 23 1 0
BITMAP
1F80
0300
0300
0700
0700
0600
0E00
0E00
0C00
1C00
1C00
1800
1800
3800
3800
3000
7000
7000
6200
6400
EC00
F800
7000
ENDCHAR

STARTCHAR m
ENCODING 109
SWIDTH 771 0
DWIDTH 25 0
BBX 23 15 1 0
BITMAP
0C0C0C
3E3E3E
2E4E4E
CE8C8E
0D8C8C
1D1D0C
1E1E1C
1A1A18
1C1C18
383838
383830
303032
707074
707078
606030
ENDCHAR

STARTCHAR n
ENCODING 110
SWIDTH 531 0
DWIDTH 18 0
BBX 16 15 1 0
BITMAP
1E1E
3E27
6E46
CE86
0D0E
1F0E
1A0C
1C1C
1C18
3818
3838
3033
7032
707C
6038
ENDCHAR

STARTCHAR o
ENCODING 111
SWIDTH 448 0
DWIDTH 15 0
BBX 13 15 1 0
BITMAP
03E0
0670
1830
1838
3038
7038
6038
6030
E030
E070
E060
E0C0
60C0
7300
3E00
ENDCHAR

STARTCHAR p
ENCODING 112
SWIDTH 490 0
DWIDTH 16 0
BBX 18 23 -2 -6
BITMAP
006000
00E000
00FE00
01FF80
03C780
0DC3C0
1981C0
1181C0
0381C0
030180
030180
070380
070300
060600
061C00
0E7000
0FC000
0C0000
1C0000
1C0000
180000
3C0000
FF0000
ENDCHAR

STARTCHAR q
ENCODING 113
SWIDTH 448 0
DWIDTH 15 0
BBX 14 21 1 -6
BITMAP
01E4
063C
0C38
1838
1838
3038
7030
6070
6070
E060
E0E0
E1E0
F360
7EC0
3DC0
01C0
0180
0180
0380
0780
1FE0
ENDCHAR

STARTCHAR r
ENCODING 114
SWIDTH 344 0
DWIDTH 11 0
BBX 11 15 2 0
BITMAP
30E0
79E0
5960
9A60
1E00
3800
3800
3800
3800
7000
7000
7000
6000
6000
E000
ENDCHAR

STARTCHAR s
ENCODING 115
SWIDTH 333 0
DWIDTH 11 0
BBX 10 15 1 0
BITMAP
0F80
11C0
31C0
3000
3800
3800
1C00
1E00
0E00
0700
0300
8300
C300
E600
7C00
ENDCHAR

STARTCHAR t
ENCODING 116
SWIDTH 292 0
DWIDTH 10 0
BBX 9 18 1 0
BITMAP
0200
0E00
1C00
7F80
1C00
1C00
1800
3800
3800
3000
3000
7000
7000
6000
E300
E600
F800
7000
ENDCHAR

STARTCHAR u
ENCODING 117
SWIDTH 531 0
DWIDTH 18 0
BBX 16 15 1 0
BITMAP
0C07
3E07
6E06
CC0E
0C0E
1C1C
1C1C
182C
3868
3858
30B8
7139
733A
7C3C
3838
ENDCHAR

STARTCHAR v
ENCODING 118
SWIDTH 521 0
DWIDTH 17 0
BBX 16 15 1 0
BITMAP
3F86
7F87
4107
C303
E203
E602
0C02
0C06
1804
380C
3808
3810
1C70
1FC0
0F80
ENDCHAR

STARTCHAR w
ENCODING 119
SWIDTH 688 0
DWIDTH 23 0
BBX 21 15 1 0
BITMAP
3F8630
7D0E38
430E38
C20C18
E60C18
E41818
081810
181010
301030
303020
705020
70D840
719CC0
3F1F80
1C0F00
ENDCHAR

STARTCHAR x
ENCODING 120
SWIDTH 490 0
DWIDTH 16 0
BBX 16 15 0 0
BITMAP
0607
1F0F
171B
2330
03A0
01C0
01C0
00C0
01C0
0360
02E2
0462
E874
F87C
6038
ENDCHAR

STARTCHAR y
ENCODING 121
SWIDTH 479 0
DWIDTH 16 0
BBX 19 21 -3 -6
BITMAP
01C0E0
03C0E0
06C0E0
04E060
08E060
006060
006040
0070C0
007080
007180
003100
003200
003E00
003C00
001800
001000
002000
00C000
E18000
FE0000
780000
ENDCHAR

STARTCHAR z
ENCODING 122
SWIDTH 490 0
DWIDTH 16 0
BBX 15 15 1 0
BITMAP
0782
1FE2
11FE
307C
3818
1030
00C0
0300
0400
1810
3038
7C18
FF18
8FF0
83C0
ENDCHAR

STARTCHAR braceleft
ENCODING 123
SWIDTH 479 0
DWIDTH 16 0
BBX 12 30 8 -7
BITMAP
0030
00C0
0180
0300
0600
0600
0600
0E00
0E00
0E00
0C00
0C00
1800
3000
4000
C000
2000
3000
3000
3000
7000
6000
6000
E000
C000
C000
C000
4000
6000
3000
ENDCHAR

STARTCHAR bar
ENCODING 124
SWIDTH 198 0
DWIDTH 7 0
BBX 1 30 3 -7
BITMAP
80
80
80
80
80
80
80
80
80
80
80
80
80
80
80
80
80
80
80
80
80
80
80
80
80
80
80
80
80
80
ENDCHAR

STARTCHAR braceright
ENCODING 125
SWIDTH 479 0
DWIDTH 16 0
BBX 12 30 4 -7
BITMAP
0080
0060
0020
0030
0030
0030
0070
0060
0060
00E0
00C0
00C0
00C0
0040
0030
0030
00C0
0180
0300
0300
0700
0700
0700
0700
0600
0600
0C00
0800
3000
C000
ENDCHAR

STARTCHAR asciitilde
ENCODING 126
SWIDTH 542 0
DWIDTH 18 0
BBX 16 5 1 8
BITMAP
3E01
7F81
C7E2
81FE
807C
ENDCHAR

STARTCHAR space
ENCODING 160
SWIDTH 250 0
DWIDTH 10 0
BBX 0 0 0 0
BITMAP
ENDCHAR

STARTCHAR afii10023
ENCODING 161
SWIDTH 656 0
DWIDTH 22 0
BBX 23 29 0 0
BITMAP
001818
003C3C
003C3C
001818
000000
000000
07FFFE
01F01E
01E00E
00E004
01E004
01C000
01C000
01C030
03C060
0380E0
03FFE0
0381E0
0780C0
0700C0
0700C0
070000
0E0000
0E0008
0E0010
1E0030
1E00F0
7F03E0
FFFFE0
ENDCHAR

STARTCHAR afii10051
ENCODING 162
SWIDTH 771 0
DWIDTH 25 0
BBX 22 23 3 0
BITMAP
7FFFF8
787838
607038
C07018
C07010
00E000
00E000
00E000
01EFE0
01F870
01E038
01C038
03C01C
03801C
03801C
03801C
07801C
07003C
070E38
0F1E38
1F1C70
3FC8E0
FFC780
ENDCHAR

STARTCHAR afii10052
ENCODING 163
SWIDTH 563 0
DWIDTH 19 0
BBX 21 29 1 0
BITMAP
0003E0
000780
000700
000E00
000000
000000
0FFFF8
03F078
01E038
01E030
01C010
01C000
038000
038000
038000
038000
070000
070000
070000
0F0000
0E0000
0E0000
0E0000
1E0000
1C0000
1C0000
3E0000
FF0000
FF8000
ENDCHAR

STARTCHAR afii10053
ENCODING 164
SWIDTH 708 0
DWIDTH 23 0
BBX 22 23 3 0
BITMAP
003FC0
00E070
03C03C
07001C
0E000C
1E0008
1C0008
380000
780000
780000
700000
FFFE00
F00000
F00000
F00000
F00000
7000C0
7001E0
7801E0
3801C0
1C03C0
0F0F00
03FC00
ENDCHAR

STARTCHAR afii10054
ENCODING 165
SWIDTH 604 0
DWIDTH 20 0
BBX 20 23 1 0
BITMAP
007F80
01C1E0
0380F0
070070
070030
070020
078020
07C000
03E000
01F000
00F800
007C00
003E00
001F00
000F80
400780
600380
600380
600380
F00780
F80700
3C1E00
07F800
ENDCHAR

STARTCHAR afii10055
ENCODING 166
SWIDTH 375 0
DWIDTH 12 0
BBX 15 23 0 0
BITMAP
03FE
01FC
00F0
00F0
00E0
00E0
01E0
01C0
01C0
01C0
03C0
0380
0380
0380
0700
0700
0700
0F00
0E00
0E00
1E00
3F00
FFC0
ENDCHAR

STARTCHAR afii10056
ENCODING 167
SWIDTH 375 0
DWIDTH 12 0
BBX 17 29 0 0
BITMAP
030300
078780
078780
030300
000000
000000
07FE00
03FC00
01F000
00E000
01E000
01E000
01C000
01C000
03C000
038000
038000
038000
078000
070000
070000
0F0000
0E0000
0E0000
0E0000
1E0000
1E0000
7F0000
FFC000
ENDCHAR

STARTCHAR afii10057
ENCODING 168
SWIDTH 479 0
DWIDTH 16 0
BBX 21 29 -3 -6
BITMAP
007838
00FC78
019F78
030FF0
0387C0
03C1C0
03C1C0
018380
000380
000380
007FE0
007FE0
000700
000F00
000E00
000E00
001E00
001E00
001C00
001C00
003C00
003800
003800
007800
007000
406000
E0E000
F1C000
7F0000
ENDCHAR

STARTCHAR afii10058
ENCODING 169
SWIDTH 927 0
DWIDTH 31 0
BBX 31 23 0 0
BITMAP
007FFF80
00BC3E00
00181C00
00101C00
00103800
00103800
00203800
00203800
00207000
00407000
00407FC0
0040F0F0
00C0E038
0080E01C
0080E01E
0181E01E
0101C01E
0101C01E
0201C01C
0203C03C
E407C078
F80FE1F0
F01FFFC0
ENDCHAR

STARTCHAR afii10059
ENCODING 170
SWIDTH 970 0
DWIDTH 32 0
BBX 32 23 0 0
BITMAP
07FE7FC0
03FC7F80
00F01E00
00F01E00
00E01C00
00E01C00
01C03C00
01C03800
01C03800
03C03800
03807800
03FFFFE0
03807078
0780701C
0700F00E
0700E00F
0700E00F
0E00E00F
0E01C00F
0E01C01E
1E03C03C
3F07E0F8
FF9FFFE0
ENDCHAR

STARTCHAR afii10060
ENCODING 171
SWIDTH 802 0
DWIDTH 26 0
BBX 21 23 3 0
BITMAP
7FFFF0
78E0E0
60E060
C0E060
C1C060
01C000
01C000
03C000
038FC0
03B0E0
03C070
078038
070038
070038
070038
0E0078
0E0070
0E0070
1E0070
1C00F0
3E01F0
FF07F8
FF87F8
ENDCHAR

STARTCHAR afii10061
ENCODING 172
SWIDTH 708 0
DWIDTH 23 0
BBX 26 28 0 0
BITMAP
0000FC00
0001E000
0001C000
00038000
00000000
07FE0780
03FC0FC0
01F00F80
00F01000
00E01000
00E02000
01E02000
01C06000
01C04000
03C0C000
03818000
03FE0000
038E0000
07870000
07078000
07038000
07038000
0E01C000
0E01C000
1E00E000
1E00F000
7FC07C00
FF807E00
ENDCHAR

STARTCHAR hyphen
ENCODING 173
SWIDTH 365 0
DWIDTH 12 0
BBX 11 3 1 6
BITMAP
7FE0
FFE0
FFC0
ENDCHAR

STARTCHAR afii10062
ENCODING 174
SWIDTH 688 0
DWIDTH 23 0
BBX 24 29 3 0
BITMAP
00C070
00E0E0
00F1E0
003F80
000000
000000
7FC0FF
3F80FE
1F0038
0F0030
0F0030
070060
070040
078080
038180
038100
03C200
01C600
01CC00
01C800
00F000
00F000
00E000
004000
00C000
618000
F30000
7E0000
3C0000
ENDCHAR

STARTCHAR afii10145
ENCODING 175
SWIDTH 813 0
DWIDTH 27 0
BBX 29 28 0 -5
BITMAP
07FE0FF8
03FC07F0
00F003E0
00E001C0
00E003C0
00E00380
01C00380
01C00380
01C00780
03C00700
03800700
03800700
03800E00
07800E00
07000E00
07001E00
07001C00
0E001C00
0E001C00
0E003C00
1E007C00
7F00FE00
FFFFFF00
003C0000
00380000
00380000
00380000
00780000
ENDCHAR

STARTCHAR afii10017
ENCODING 176
SWIDTH 729 0
DWIDTH 24 0
BBX 24 23 -2 0
BITMAP
00000E
00001E
00003E
00002E
00006E
0000CE
00018E
00031E
00061C
00041C
000C1C
00181C
00301C
007FFC
00C01C
01C01C
01801C
03001C
060038
0C0038
1E003C
3E007C
FF81FF
ENDCHAR

STARTCHAR afii10018
ENCODING 177
SWIDTH 688 0
DWIDTH 23 0
BBX 23 23 0 0
BITMAP
03FFFE
01FC1E
00F00E
00F006
00E006
00E000
00E000
01C000
01C000
01C000
03FF80
0381E0
0380F0
038078
078038
070038
070038
070038
0F0078
0E0070
1F00F0
3F87C0
FFFF00
ENDCHAR

STARTCHAR afii10019
ENCODING 178
SWIDTH 698 0
DWIDTH 23 0
BBX 23 23 0 0
BITMAP
07FFF0
01F078
00E03C
00E01E
00E01E
01E01E
01C01E
01C01C
01C03C
03C078
0381E0
03FF00
0381E0
078070
078038
07003C
0F003C
0F003C
0F003C
1F0078
1F00F0
3F81E0
FFFF80
ENDCHAR

STARTCHAR afii10020
ENCODING 179
SWIDTH 563 0
DWIDTH 19 0
BBX 21 23 1 0
BITMAP
0FFFF8
03F078
01E038
01E030
01C010
01C000
038000
038000
038000
038000
070000
070000
070000
0F0000
0E0000
0E0000
0E0000
1E0000
1C0000
1C0000
3E0000
FF0000
FF8000
ENDCHAR

STARTCHAR afii10021
ENCODING 180
SWIDTH 677 0
DWIDTH 22 0
BBX 27 28 -3 -5
BITMAP
007FFFE0
001E0FC0
000C0780
00080700
00080700
00080700
00100F00
00100E00
00100E00
00300E00
00201C00
00201C00
00201C00
00601C00
00403800
00403800
00803800
00807800
01007000
01007000
0300F000
0F01FC00
3FFFFE00
3C001E00
78000C00
60000C00
60000C00
C0000C00
ENDCHAR

STARTCHAR afii10022
ENCODING 181
SWIDTH 656 0
DWIDTH 22 0
BBX 23 23 0 0
BITMAP
07FFFE
01F01E
00E00E
00E004
00E004
01E000
01C000
01C030
01C020
0380E0
03FFE0
0381E0
0380C0
0700C0
070040
070000
070000
0E0008
0E0010
0E0030
1E00F0
7F03E0
FFFFE0
ENDCHAR

STARTCHAR afii10024
ENCODING 182
SWIDTH 969 0
DWIDTH 32 0
BBX 35 23 0 0
BITMAP
01C0FFC1C0
03E07F83E0
03F03E07C0
00101C0C00
00101C0800
00103C0800
0010381000
0010381000
0010383000
0010782000
000870C000
000FFF8000
003C778000
0038E38000
0070E3C000
00F0E1C000
01E1E1E000
03C1C0E000
03C1C0E000
0783C07000
0F03C07800
3E0FF83C00
FC1FF03E00
ENDCHAR

STARTCHAR afii10025
ENCODING 183
SWIDTH 569 0
DWIDTH 19 0
BBX 18 23 1 0
BITMAP
01FE00
07C780
070380
0601C0
0601C0
0401C0
0003C0
0003C0
000780
001E00
01F000
001C00
000600
000700
000700
000780
000780
E00780
F00F00
F00F00
781E00
3C7C00
0FF000
ENDCHAR

STARTCHAR afii10026
ENCODING 184
SWIDTH 813 0
DWIDTH 27 0
BBX 29 23 0 0
BITMAP
03FE0FF8
01FC07F0
00F003E0
00F003C0
00E007C0
00E00D80
01E01B80
01C03380
01C06700
01C0C700
03818700
03830F00
03860E00
078C0E00
07180E00
07301E00
07601C00
0EC01C00
0F801C00
1F003C00
1E007C00
7FC0FF00
FF81FF00
ENDCHAR

STARTCHAR afii10027
ENCODING 185
SWIDTH 813 0
DWIDTH 27 0
BBX 29 29 0 0
BITMAP
00070380
00078780
00038F00
0001FC00
00000000
00000000
03FE0FF8
01FC07F0
00F003E0
00F003C0
00E007C0
00E00D80
01E01B80
01C03380
01C06700
01C0C700
03818700
03830F00
03860E00
078C0E00
07180E00
07301E00
07601C00
0EC01C00
0F801C00
1F003C00
1E007C00
7FC0FF00
FF81FF00
ENDCHAR

STARTCHAR afii10028
ENCODING 186
SWIDTH 708 0
DWIDTH 23 0
BBX 26 23 0 0
BITMAP
07FE0780
03FC0FC0
01F00F80
00F01000
00E01000
00E02000
01E02000
01C06000
01C04000
03C0C000
03818000
03FE0000
038E0000
07870000
07078000
07038000
07038000
0E01C000
0E01C000
1E00E000
1E00F000
7FC07C00
FF807E00
ENDCHAR

STARTCHAR afii10029
ENCODING 187
SWIDTH 718 0
DWIDTH 24 0
BBX 27 23 -1 0
BITMAP
00FFFFE0
001E1FC0
000C0F00
00180F00
00180E00
00100E00
00100E00
00101E00
00201C00
00201C00
00201C00
00603800
00403800
00403800
00403800
00807000
00807000
01807000
0100F000
0300E000
F201F000
FC03F800
7807FC00
ENDCHAR

STARTCHAR afii10030
ENCODING 188
SWIDTH 979 0
DWIDTH 32 0
BBX 34 23 0 0
BITMAP
00FC001FC0
007C001F00
003C003E00
003C003E00
002C006C00
006C005C00
005E00DC00
00DE019C00
008E013C00
018E033800
018E063800
010E043800
030E0C3800
020F183800
0607103800
0607303800
0407603800
0C07407800
0C07C07800
1C07807800
3C07007800
7C0300F800
FF0203FE00
ENDCHAR

STARTCHAR afii10031
ENCODING 189
SWIDTH 823 0
DWIDTH 27 0
BBX 30 23 0 0
BITMAP
03FE0FFC
01F803F0
00F001E0
00F001C0
00E001C0
00E003C0
01E00380
01C00380
01C00380
01C00780
03FFFF00
03FFFF00
03800700
03800E00
07000E00
07000E00
07001E00
0F001C00
0E001C00
0E003C00
1E003C00
3F007E00
FFC1FF00
ENDCHAR

STARTCHAR afii10032
ENCODING 190
SWIDTH 792 0
DWIDTH 26 0
BBX 23 23 3 0
BITMAP
003F80
00E0E0
038070
070038
0E001C
1C001C
1C001C
38001E
78001E
78001E
70001E
F0001E
F0001C
F0003C
F0003C
F00038
700078
700070
7800E0
3801C0
1C0380
0E0E00
03F800
ENDCHAR

STARTCHAR afii10033
ENCODING 191
SWIDTH 813 0
DWIDTH 27 0
BBX 29 23 0 0
BITMAP
07FFFFF8
01F807F0
00F001C0
00E003C0
00E003C0
00E00380
01C00380
01C00380
01C00700
03C00700
03800700
03800F00
03800E00
07800E00
07000E00
07001E00
07001C00
0F001C00
0E001C00
1E003C00
1E007C00
7FC0FF00
FF81FF00
ENDCHAR

STARTCHAR afii10034
ENCODING 192
SWIDTH 615 0
DWIDTH 20 0
BBX 23 23 0 0
BITMAP
07FFE0
01F0F8
00F03C
00E01C
00E01E
00E01E
01E01E
01C01E
01C01C
01C03C
038078
038FE0
038F80
078000
070000
070000
070000
0F0000
0E0000
0E0000
1F0000
7F8000
FFC000
ENDCHAR

STARTCHAR afii10035
ENCODING 193
SWIDTH 708 0
DWIDTH 23 0
BBX 23 23 2 0
BITMAP
003FE0
00F078
01C01E
07800E
0F000C
1E000C
1C000C
3C0000
380000
780000
700000
F00000
F00000
F00000
F00000
F00030
700030
700060
380060
3C00E0
1E01C0
0F0780
03FC00
ENDCHAR

STARTCHAR afii10036
ENCODING 194
SWIDTH 667 0
DWIDTH 22 0
BBX 22 23 4 0
BITMAP
7FFFFC
787878
607038
C07018
C07010
00F000
00E000
00E000
00E000
01C000
01C000
01C000
03C000
038000
038000
038000
078000
070000
070000
0F0000
0F0000
1F8000
FFE000
ENDCHAR

STARTCHAR afii10037
ENCODING 195
SWIDTH 688 0
DWIDTH 23 0
BBX 24 23 3 0
BITMAP
7FC0FF
3F80FE
1F0038
0F0030
0F0030
070060
070040
078080
038180
038100
03C200
01C600
01CC00
01C800
00F000
00F000
00E000
004000
00C000
618000
F30000
7E0000
3C0000
ENDCHAR

STARTCHAR afii10038
ENCODING 196
SWIDTH 917 0
DWIDTH 30 0
BBX 27 23 3 0
BITMAP
000FF800
0007F000
0003C000
0003C000
01FFFC00
07838700
1E038380
3C0701C0
780700E0
700700E0
F00700E0
F00E00E0
F00E01E0
F00E01E0
701E01C0
781C0380
3C1C0F00
1E1C3E00
03FFF000
00380000
00780000
01FE0000
03FF0000
ENDCHAR

STARTCHAR afii10039
ENCODING 197
SWIDTH 781 0
DWIDTH 26 0
BBX 29 23 0 0
BITMAP
03FF0FF8
00FC07E0
00F803C0
00780300
00380600
003C0C00
001C1800
001E3000
000E6000
000FC000
00070000
00078000
000F8000
001BC000
0071C000
00C1E000
0180E000
0300F000
06007000
1E007800
3E007C00
FF83FF00
FF83FF00
ENDCHAR

STARTCHAR afii10040
ENCODING 198
SWIDTH 813 0
DWIDTH 27 0
BBX 29 28 0 -5
BITMAP
03FE0FF8
01FC07F0
00F003E0
00F001C0
00E003C0
00E00380
01E00380
01C00380
01C00780
01C00700
03C00700
03800700
03800E00
07800E00
07000E00
07001E00
07001C00
0F001C00
0E001C00
0E003C00
1E007C00
7F00FE00
FFFFFF80
00000F00
00000700
00000300
00000200
00000200
ENDCHAR

STARTCHAR afii10041
ENCODING 199
SWIDTH 771 0
DWIDTH 25 0
BBX 23 23 4 0
BITMAP
FF83FE
7F01FC
3E00F8
3C0070
380070
3800F0
3800E0
7000E0
7000E0
7001C0
7001C0
7803C0
380DC0
1E3B80
0FE380
000380
000700
000700
000700
000F00
000F00
003FC0
007FC0
ENDCHAR

STARTCHAR afii10042
ENCODING 200
SWIDTH 1000 0
DWIDTH 33 0
BBX 35 23 0 0
BITMAP
03FEFF9FE0
01FC7F1FC0
00F03E0F80
00F03C0700
00E03C0700
00E0380F00
01E0380E00
01C0780E00
01C0700E00
03C0701C00
0380701C00
0380F01C00
0380E01C00
0780E03800
0700E03800
0701E03800
0F01C07800
0F01C07000
0E03C07000
1E0380F000
1E07C0F000
3F0FE3F800
FFFFFFFC00
ENDCHAR

STARTCHAR afii10043
ENCODING 201
SWIDTH 1000 0
DWIDTH 33 0
BBX 35 28 0 -5
BITMAP
03FEFF9FE0
01FC7F1FC0
00F03E0F80
00F03C0700
00E03C0700
00E0380F00
01E0380E00
01C0780E00
01C0700E00
03C0701C00
0380701C00
0380F01C00
0380E01C00
0780E03800
0700E03800
0701E03800
0F01C07800
0F01C07000
0E03C07000
1E0380F000
1E07C0F000
3F0FE3F800
FFFFFFFC00
0000003C00
0000001C00
0000001800
0000000800
0000000800
ENDCHAR

STARTCHAR afii10044
ENCODING 202
SWIDTH 741 0
DWIDTH 24 0
BBX 21 23 3 0
BITMAP
3FFF00
3E7C00
787800
607000
60F000
C0E000
00E000
01E000
01C000
01C000
01C000
03FF80
0381E0
038070
038078
078038
070038
070038
0F0078
0E0078
1F00F0
3F83E0
FFFF00
ENDCHAR

STARTCHAR afii10045
ENCODING 203
SWIDTH 979 0
DWIDTH 32 0
BBX 35 23 0 0
BITMAP
07FF003FE0
03FC001FC0
00F8000F80
00F0000F00
00E0000F00
00E0000E00
00E0000E00
01E0001E00
01C0001C00
01C0001C00
03C0001C00
03FF803C00
0381E03800
0380703800
0780783800
0700387800
0700387000
0700387000
0F00787000
0E0078F000
1E00F1F000
3F03E3F800
FFFF87FC00
ENDCHAR

STARTCHAR afii10046
ENCODING 204
SWIDTH 642 0
DWIDTH 21 0
BBX 21 23 0 0
BITMAP
07FF00
03FC00
00F800
00F000
00E000
00E000
00E000
01E000
01C000
01C000
03C000
03FF80
0381E0
038070
078078
070038
070038
070038
0F0078
0E0078
1E00F0
3F03E0
FFFF80
ENDCHAR

STARTCHAR afii10047
ENCODING 205
SWIDTH 708 0
DWIDTH 23 0
BBX 22 23 1 0
BITMAP
007F00
03E1C0
078060
070070
060038
060038
04001C
00001C
00001C
00001C
00001C
00FFFC
00003C
00003C
000078
000078
6000F0
F000F0
F001E0
7003C0
780780
1C1E00
07F800
ENDCHAR

STARTCHAR afii10048
ENCODING 206
SWIDTH 1135 0
DWIDTH 37 0
BBX 37 23 0 0
BITMAP
07FE00FE00
03FC038780
01F00601C0
00E01C00E0
00E03800F0
01E0380070
01C0700070
01C0E00078
01C0E00078
03C1E00078
0381C00078
03FFC00078
0783C00078
0703C000F0
0703C000F0
0703C000E0
0F01C001E0
0E01C001C0
0E01C00380
1E00E00700
3E00700E00
7F00383800
FF800FE000
ENDCHAR

STARTCHAR afii10049
ENCODING 207
SWIDTH 698 0
DWIDTH 23 0
BBX 26 23 -1 0
BITMAP
003FFFC0
00F80F00
01E00E00
03C01E00
03801C00
03801C00
03801C00
03C03800
01E03800
00F83800
003FF800
00787000
00707000
00F07000
01E0F000
01C0E000
03C0E000
0780E000
0F01E000
0F01E000
1E03E000
7C0FF800
F80FF800
ENDCHAR

STARTCHAR afii10065
ENCODING 208
SWIDTH 521 0
DWIDTH 17 0
BBX 15 15 1 0
BITMAP
01F6
033C
0C1C
081C
1818
3018
3038
6038
6070
E070
E0B2
E1A2
F364
7E78
3C70
ENDCHAR

STARTCHAR afii10066
ENCODING 209
SWIDTH 448 0
DWIDTH 15 0
BBX 15 23 1 0
BITMAP
0006
00FC
03FC
07F0
0E00
0800
1000
1000
23E0
2670
2C30
5838
7038
7038
6038
E030
E030
E070
E060
E0C0
60C0
7380
3E00
ENDCHAR

STARTCHAR afii10067
ENCODING 210
SWIDTH 385 0
DWIDTH 13 0
BBX 11 15 1 0
BITMAP
03C0
0CE0
1860
3060
70C0
7180
6600
FF00
E1C0
C1C0
C1C0
C1C0
C380
6700
3E00
ENDCHAR

STARTCHAR afii10068
ENCODING 211
SWIDTH 302 0
DWIDTH 10 0
BBX 10 15 0 0
BITMAP
0780
09C0
10C0
00C0
00C0
0180
0300
0C00
3800
7000
6000
E000
E100
7200
7C00
ENDCHAR

STARTCHAR afii10069
ENCODING 212
SWIDTH 449 0
DWIDTH 15 0
BBX 14 23 1 0
BITMAP
0100
00C0
0060
0030
0030
0018
0018
001C
03DC
0E2C
181C
181C
301C
701C
6018
6018
E018
E030
E030
E060
70C0
7180
3F00
ENDCHAR

STARTCHAR afii10070
ENCODING 213
SWIDTH 385 0
DWIDTH 13 0
BBX 12 15 1 0
BITMAP
00E0
03F0
0430
0830
1820
3060
31C0
6F00
7800
E000
E030
E060
71C0
7F80
3E00
ENDCHAR

STARTCHAR afii10072
ENCODING 214
SWIDTH 875 0
DWIDTH 29 0
BBX 29 15 0 0
BITMAP
07C0C0F0
0FE1C198
18E1C318
20718618
40718400
00738C00
00739C00
007FF800
00E31800
00E73800
01C63818
41863810
E30E1C60
E60E1FC0
780C0F00
ENDCHAR

STARTCHAR afii10073
ENCODING 215
SWIDTH 365 0
DWIDTH 12 0
BBX 11 15 0 0
BITMAP
0F80
19C0
20E0
00E0
00C0
01C0
1E00
0300
0180
01C0
01C0
81C0
C380
E700
3E00
ENDCHAR

STARTCHAR afii10074
ENCODING 216
SWIDTH 531 0
DWIDTH 18 0
BBX 16 15 1 0
BITMAP
0C07
3E07
6E06
CC0E
0C0E
1C1C
1C1C
182C
3868
3858
30B8
7139
733A
7C3C
3838
ENDCHAR

STARTCHAR afii10075
ENCODING 217
SWIDTH 531 0
DWIDTH 18 0
BBX 16 21 1 0
BITMAP
0182
01C2
01EC
00F8
0000
0000
0C07
3E07
6E06
CC0E
0C0E
1C1C
1C0C
182C
3868
3858
30B8
7139
733A
7C3C
3838
ENDCHAR

STARTCHAR afii10076
ENCODING 218
SWIDTH 489 0
DWIDTH 16 0
BBX 15 15 2 0
BITMAP
7C1C
1C1E
1C20
1820
1840
3080
3F00
3380
7180
61C0
61C0
E0C0
E0E0
C070
C078
ENDCHAR

STARTCHAR afii10077
ENCODING 219
SWIDTH 490 0
DWIDTH 16 0
BBX 16 15 0 0
BITMAP
001F
0066
008E
010C
020C
021C
041C
0418
0438
0838
0830
1833
F074
F078
C030
ENDCHAR

STARTCHAR afii10078
ENCODING 220
SWIDTH 586 0
DWIDTH 19 0
BBX 19 15 0 0
BITMAP
01C060
01C0E0
01C1E0
02C140
03C2C0
02C6C0
04C5C0
04C980
04DB80
08D380
08E300
10E720
F0C740
E0C780
C08300
ENDCHAR

STARTCHAR afii10079
ENCODING 221
SWIDTH 525 0
DWIDTH 17 0
BBX 16 15 1 0
BITMAP
3E07
0E07
0C06
0C0E
1C0C
180C
181C
3FF8
3818
3038
3030
7032
6074
607C
E070
ENDCHAR

STARTCHAR afii10080
ENCODING 222
SWIDTH 448 0
DWIDTH 15 0
BBX 13 15 1 0
BITMAP
03E0
0670
1830
1838
3038
7038
6038
6030
E030
E070
E060
E0C0
60C0
7300
3E00
ENDCHAR

STARTCHAR afii10081
ENCODING 223
SWIDTH 531 0
DWIDTH 18 0
BBX 16 15 1 0
BITMAP
1E1E
3E27
6E46
CE86
0D0E
1F0E
1A0C
1C1C
1C18
3818
3838
3033
7032
707C
6038
ENDCHAR

STARTCHAR afii10082
ENCODING 224
SWIDTH 490 0
DWIDTH 16 0
BBX 18 23 -2 -6
BITMAP
006000
00C000
00FE00
01FF80
07C780
0DC1C0
1981C0
1181C0
0381C0
030180
030180
070300
070300
060600
0E1C00
0E7000
0FC000
0C0000
1C0000
1C0000
180000
3C0000
FF0000
ENDCHAR

STARTCHAR afii10083
ENCODING 225
SWIDTH 385 0
DWIDTH 13 0
BBX 12 15 1 0
BITMAP
01E0
0670
0C70
1860
3000
3000
7000
6000
6000
E000
E020
E040
71C0
7F80
3E00
ENDCHAR

STARTCHAR afii10084
ENCODING 226
SWIDTH 771 0
DWIDTH 25 0
BBX 23 15 1 0
BITMAP
0C0C0C
3E3E3E
2E4E4E
CE8C8C
0D8D8C
1D1D0C
1E1E1C
1A1A18
1C1C18
383838
383830
303032
707074
707078
606030
ENDCHAR

STARTCHAR afii10085
ENCODING 227
SWIDTH 479 0
DWIDTH 16 0
BBX 19 21 -3 -6
BITMAP
01C0E0
03C0E0
06C0E0
04E060
08E060
006060
006040
0070C0
007080
007180
003100
003200
003E00
003C00
001800
001000
002000
00C000
E18000
FE0000
780000
ENDCHAR

STARTCHAR afii10086
ENCODING 228
SWIDTH 625 0
DWIDTH 21 0
BBX 19 29 1 -6
BITMAP
0001C0
0006E0
000C40
000C00
001C00
001C00
001800
003800
03B780
0C5DC0
1878C0
1870E0
3070E0
7060E0
70E0E0
60E0C0
E0C0C0
E0C1C0
E1C180
E1C380
63C700
658E00
3B3800
030000
070000
060000
C60000
EC0000
780000
ENDCHAR

STARTCHAR afii10087
ENCODING 229
SWIDTH 490 0
DWIDTH 16 0
BBX 16 15 0 0
BITMAP
0607
1F0F
171B
2330
03A0
01C0
01C0
00C0
01C0
0360
02E2
0462
E874
F87C
6038
ENDCHAR

STARTCHAR afii10088
ENCODING 230
SWIDTH 521 0
DWIDTH 17 0
BBX 17 20 1 -5
BITMAP
0E0300
3E0700
2E0700
CE0600
0C0E00
0C0E00
1C1C00
181400
382C00
385C00
305800
309980
713B00
763E00
3C3C00
000800
001800
003000
003000
00E000
ENDCHAR

STARTCHAR afii10089
ENCODING 231
SWIDTH 490 0
DWIDTH 16 0
BBX 15 15 1 0
BITMAP
180C
7C1C
DC1C
9818
1818
3838
3030
3030
39F0
1E70
0060
0066
00EC
00F8
0070
ENDCHAR

STARTCHAR afii10090
ENCODING 232
SWIDTH 792 0
DWIDTH 26 0
BBX 25 15 1 0
BITMAP
1C070300
3E060700
4E060700
8C0E0600
1C0E0E00
1C1C0E00
180C1400
382C2C00
38582C00
30585C00
70B89800
7131B980
62333900
7C3E3E00
30181C00
ENDCHAR

STARTCHAR afii10091
ENCODING 233
SWIDTH 792 0
DWIDTH 26 0
BBX 25 20 1 -5
BITMAP
1C070300
3E060700
4E060700
CC0E0600
1C0E0E00
1C1C0E00
18141400
382C2C00
38582C00
30585C00
70B89880
7131B900
62333B00
7C3E3E00
30181800
00000800
00001800
00003000
00003000
00006000
ENDCHAR

STARTCHAR afii10092
ENCODING 234
SWIDTH 396 0
DWIDTH 13 0
BBX 12 15 1 0
BITMAP
3880
7F00
4D00
8200
0200
0400
0BC0
1C60
3870
3070
7070
7060
30E0
39C0
1F00
ENDCHAR

STARTCHAR afii10093
ENCODING 235
SWIDTH 624 0
DWIDTH 21 0
BBX 18 15 3 0
BITMAP
180180
780F80
380380
300300
300300
700700
6F8700
718600
61CE00
E1CE00
C1CC00
C19CC0
C39D80
671F00
3C0E00
ENDCHAR

STARTCHAR afii10094
ENCODING 236
SWIDTH 406 0
DWIDTH 13 0
BBX 10 15 3 0
BITMAP
1800
7800
3800
3000
3000
7000
6F00
7180
61C0
E1C0
C1C0
C180
C380
6700
3C00
ENDCHAR

STARTCHAR afii10095
ENCODING 237
SWIDTH 396 0
DWIDTH 13 0
BBX 13 15 0 0
BITMAP
03E0
0C70
3038
1038
0038
0038
0038
07F0
0030
0070
0060
E0C0
E180
E300
3E00
ENDCHAR

STARTCHAR afii10096
ENCODING 238
SWIDTH 667 0
DWIDTH 22 0
BBX 20 15 1 0
BITMAP
7E07C0
1E0CE0
0C1060
0C3070
1C6070
18E070
18C070
3FC060
39C060
31C0E0
31C0C0
71C180
60C180
60E600
E07C00
ENDCHAR

STARTCHAR afii10097
ENCODING 239
SWIDTH 542 0
DWIDTH 18 0
BBX 17 15 0 0
BITMAP
01FF80
078300
0E0300
0E0700
0E0600
060600
070E00
01FE00
060C00
040C00
081C00
181880
F01900
E01E00
C01C00
ENDCHAR

STARTCHAR afii61352
ENCODING 240
SWIDTH 1031 0
DWIDTH 34 0
BBX 32 23 2 0
BITMAP
01F801E0
00F803E0
007C06E0
005C0400
005C0C00
005C0800
00DE083C
008E0866
008E18C7
008E11C7
018F1187
01073387
01072386
0307238E
0207A38C
0203E198
0203C0F0
0603C000
0403C000
0401C000
EC018000
F80187F0
F0018FF0
ENDCHAR

STARTCHAR afii10071
ENCODING 241
SWIDTH 385 0
DWIDTH 13 0
BBX 13 21 1 0
BITMAP
0738
0738
0738
0000
0000
0000
01C0
07E0
0C60
1860
1060
30C0
6180
6E00
7800
E000
E060
E0C0
7180
7F00
3E00
ENDCHAR

STARTCHAR afii10099
ENCODING 242
SWIDTH 510 0
DWIDTH 17 0
BBX 15 29 1 -6
BITMAP
1F80
0780
0300
0300
0700
3FFE
0600
0E00
0E00
0C78
0DFC
1E1C
1C0E
180E
380E
300E
300E
700C
701C
601C
6038
E038
C070
0060
00C0
0180
0300
0600
0800
ENDCHAR

STARTCHAR afii10100
ENCODING 243
SWIDTH 448 0
DWIDTH 15 0
BBX 15 22 0 0
BITMAP
001C
0038
0030
0060
0000
0000
0000
1FFE
0706
0602
0602
0E00
0C00
0C00
1C00
1C00
1800
1800
3800
3800
7800
FC00
ENDCHAR

STARTCHAR afii10101
ENCODING 244
SWIDTH 406 0
DWIDTH 13 0
BBX 13 15 1 0
BITMAP
03E0
0610
0C08
1800
3000
7000
6000
7F80
E000
E000
E000
E0C0
60C0
71C0
1F00
ENDCHAR

STARTCHAR afii10102
ENCODING 245
SWIDTH 333 0
DWIDTH 11 0
BBX 10 15 1 0
BITMAP
0F80
11C0
31C0
3000
3800
3800
1C00
1E00
0E00
0700
0300
8300
C300
E600
7C00
ENDCHAR

STARTCHAR afii10103
ENCODING 246
SWIDTH 271 0
DWIDTH 9 0
BBX 9 23 1 0
BITMAP
0380
0380
0380
0000
0000
0000
0000
0000
1C00
3E00
6E00
4C00
8C00
1C00
1C00
1800
3800
3800
3300
7200
7400
7C00
3000
ENDCHAR

STARTCHAR afii10104
ENCODING 247
SWIDTH 271 0
DWIDTH 9 0
BBX 11 21 1 0
BITMAP
1CE0
1CE0
1CE0
0000
0000
0000
1E00
3E00
6E00
4E00
8C00
0C00
1C00
1800
3800
3800
3100
7200
7600
7C00
3000
ENDCHAR

STARTCHAR afii10105
ENCODING 248
SWIDTH 240 0
DWIDTH 8 0
BBX 14 29 -4 -6
BITMAP
001C
001C
001C
0000
0000
0000
0000
0000
00E0
01F0
0370
0670
0060
0060
00E0
00C0
00C0
01C0
01C0
0180
0180
0380
0300
0300
0700
0600
C600
EC00
F800
ENDCHAR

STARTCHAR afii10106
ENCODING 249
SWIDTH 663 0
DWIDTH 22 0
BBX 22 15 -1 0
BITMAP
000F80
003300
004700
008700
010600
010E00
020CF0
020F38
020C1C
041C1C
04181C
081818
781838
F00C70
6007C0
ENDCHAR

STARTCHAR afii10107
ENCODING 250
SWIDTH 691 0
DWIDTH 23 0
BBX 21 15 1 0
BITMAP
060700
3E1E00
0C0E00
0C0E00
1C0C00
180C00
181DE0
3FFE70
381838
301838
303038
703030
603070
6018E0
E00F80
ENDCHAR

STARTCHAR afii10108
ENCODING 251
SWIDTH 500 0
DWIDTH 17 0
BBX 15 23 1 0
BITMAP
1F80
0F80
0300
0300
0600
7FFE
0600
0E00
0C00
0C70
1DF8
1E1C
1C1C
181C
3818
3018
3018
7030
7030
6032
E076
E07C
C078
ENDCHAR

STARTCHAR afii10109
ENCODING 252
SWIDTH 489 0
DWIDTH 16 0
BBX 15 22 2 0
BITMAP
0038
0070
0060
00C0
00C0
0000
0000
7C1C
1C1E
1C20
1820
1840
3080
3F00
3380
7180
61C0
61C0
E0C0
E0E0
C070
C078
ENDCHAR

STARTCHAR section
ENCODING 253
SWIDTH 458 0
DWIDTH 15 0
BBX 21 29 -3 -6
BITMAP
0003E0
000FF0
001878
003030
007000
00F000
00B000
01B000
019000
011800
031800
030C00
030C00
030C00
030600
018600
018600
018600
00C600
00C600
00C600
006400
006C00
006800
006800
607000
F0E000
79C000
7F0000
ENDCHAR

STARTCHAR afii10110
ENCODING 254
SWIDTH 479 0
DWIDTH 16 0
BBX 19 27 -3 -6
BITMAP
006080
007080
007B00
003E00
000000
000000
01C0C0
03C0E0
06C0E0
04E060
08E060
006060
006040
0070C0
007080
007180
003100
003200
003E00
003C00
001800
001000
002000
00C000
E18000
FE0000
780000
ENDCHAR

STARTCHAR afii10193
ENCODING 255
SWIDTH 531 0
DWIDTH 18 0
BBX 17 20 1 -5
BITMAP
0C0300
3E0700
2E0700
CC0600
0C0E00
1C0E00
1C1C00
183400
382C00
385C00
30D800
71B980
733A00
7E3E00
3C3C00
080000
180000
300000
300000
600000
ENDCHAR
ENDFONT
